<?xml version="1.0" encoding="iso-8859-1"?>
<!-- Generator: Adobe Illustrator 19.0.0, SVG Export Plug-In . SVG Version: 6.00 Build 0)  -->
<svg version="1.1" id="Layer_1" xmlns="http://www.w3.org/2000/svg" xmlns:xlink="http://www.w3.org/1999/xlink" x="0px" y="0px"
	 viewBox="0 0 512 512" style="enable-background:new 0 0 512 512;" xml:space="preserve">
<g>
	<path style="fill:#ECF0F1;" d="M322.546,512H92.349c-14.433,0-26.138-11.705-26.138-26.147V26.147C66.21,11.705,77.916,0,92.349,0
		h230.197c14.442,0,26.147,11.705,26.147,26.147v459.705C348.693,500.295,336.988,512,322.546,512"/>
	<polygon style="fill:#38454F;" points="66.207,441.379 348.69,441.379 348.69,52.966 66.207,52.966 	"/>
	<g>
		<path style="fill:#546A79;" d="M242.759,35.31h-44.138c-4.882,0-8.828-3.946-8.828-8.828s3.946-8.828,8.828-8.828h44.138
			c4.882,0,8.828,3.946,8.828,8.828S247.64,35.31,242.759,35.31"/>
		<path style="fill:#546A79;" d="M172.138,35.31h-8.828c-4.882,0-8.828-3.946-8.828-8.828s3.946-8.828,8.828-8.828h8.828
			c4.882,0,8.828,3.946,8.828,8.828S177.02,35.31,172.138,35.31"/>
	</g>
	<g>
		<path style="fill:#BDC3C7;" d="M57.379,97.103c-4.882,0-8.828-3.946-8.828-8.828v-8.828c0-4.882,3.946-8.828,8.828-8.828
			s8.828,3.946,8.828,8.828v8.828C66.207,93.158,62.261,97.103,57.379,97.103"/>
		<path style="fill:#BDC3C7;" d="M57.379,132.414c-4.882,0-8.828-3.946-8.828-8.828v-8.828c0-4.882,3.946-8.828,8.828-8.828
			s8.828,3.946,8.828,8.828v8.828C66.207,128.468,62.261,132.414,57.379,132.414"/>
		<path style="fill:#BDC3C7;" d="M57.379,167.724c-4.882,0-8.828-3.946-8.828-8.828v-8.828c0-4.882,3.946-8.828,8.828-8.828
			s8.828,3.946,8.828,8.828v8.828C66.207,163.778,62.261,167.724,57.379,167.724"/>
		<path style="fill:#BDC3C7;" d="M233.931,476.69c0,14.627-11.855,26.483-26.483,26.483s-26.483-11.855-26.483-26.483
			c0-14.627,11.855-26.483,26.483-26.483S233.931,462.062,233.931,476.69"/>
	</g>
	<polygon style="fill:#4482C3;" points="463.448,273.655 304.825,273.655 287.17,317.793 269.515,273.655 233.931,273.655 
		233.931,97.103 463.448,97.103 	"/>
	<g>
		<path style="fill:#FFFFFF;" d="M304.552,185.379c0,9.754-7.901,17.655-17.655,17.655s-17.655-7.901-17.655-17.655
			c0-9.754,7.901-17.655,17.655-17.655S304.552,175.625,304.552,185.379"/>
		<path style="fill:#FFFFFF;" d="M366.345,185.379c0,9.754-7.901,17.655-17.655,17.655c-9.754,0-17.655-7.901-17.655-17.655
			c0-9.754,7.901-17.655,17.655-17.655C358.444,167.724,366.345,175.625,366.345,185.379"/>
		<path style="fill:#FFFFFF;" d="M428.138,185.379c0,9.754-7.901,17.655-17.655,17.655s-17.655-7.901-17.655-17.655
			c0-9.754,7.901-17.655,17.655-17.655S428.138,175.625,428.138,185.379"/>
	</g>
</g>
<g>
</g>
<g>
</g>
<g>
</g>
<g>
</g>
<g>
</g>
<g>
</g>
<g>
</g>
<g>
</g>
<g>
</g>
<g>
</g>
<g>
</g>
<g>
</g>
<g>
</g>
<g>
</g>
<g>
</g>
</svg>
