<svg id="Layer_1" enable-background="new 0 0 128 128" height="512" viewBox="0 0 128 128" width="512" xmlns="http://www.w3.org/2000/svg"><g><path d="m106.292 10.718c-7.508 0-13.616 6.108-13.616 13.617v8.284c0 5.967 3.864 11.038 9.217 12.873v4.655c0 .784.316 1.493.824 2.014v37.998c0 16.189-13.171 29.36-29.361 29.36s-29.36-13.171-29.36-29.36v-7.295c14.182-1.66 25.226-13.742 25.226-28.363 0-17.004-26.678-47.549-27.814-48.841-.19-.216-.463-.34-.751-.34h-.001c-.288 0-.562.125-.751.342-1.136 1.3-27.812 32.018-27.812 48.839 0 14.455 10.795 26.428 24.746 28.302v7.357c0 20.137 16.382 36.52 36.519 36.52s36.52-16.383 36.52-36.52v-38.009c.503-.52.816-1.225.816-2.005v-4.655c5.353-1.835 9.217-6.906 9.217-12.873v-8.284c-.002-7.508-6.111-13.616-13.619-13.616z" fill="#e6e7e8"/><g><g><path d="m64.221 50.501c0 15.224-12.341 27.565-27.565 27.565s-27.565-12.342-27.565-27.565c0-16.639 27.565-48.18 27.565-48.18s27.565 31.358 27.565 48.18z" fill="#fa759e"/></g><path d="m103.803 48.035h-3.023c-.395 0-.761-.122-1.064-.329v38.454c0 16.741-13.62 30.36-30.361 30.36s-30.36-13.62-30.36-30.36v-8.2c-.772.065-1.551.106-2.339.106-.952 0-1.893-.048-2.82-.143v8.236c0 19.591 15.941 35.52 35.519 35.52s35.52-15.928 35.52-35.52v-38.46c-.304.211-.673.336-1.072.336z" fill="#0089ef"/><g><path d="m102.292 41.236c-1.18 0-2.317-.174-3.4-.477v5.387c0 1.043.845 1.888 1.888 1.888h3.023c1.043 0 1.888-.845 1.888-1.888v-5.387c-1.082.303-2.219.477-3.399.477z" fill="#6dc9f7"/><path d="m102.292 41.236c-6.968 0-12.617-5.649-12.617-12.617v-8.285c0-6.968 5.649-12.617 12.617-12.617 6.968 0 12.617 5.649 12.617 12.617v8.285c0 6.968-5.649 12.617-12.617 12.617z" fill="#6dc9f7"/><path d="m102.292 7.718c-6.968 0-12.617 5.649-12.617 12.616v3c0-6.968 5.649-12.616 12.617-12.616 6.968 0 12.617 5.649 12.617 12.616v-3c0-6.967-5.649-12.616-12.617-12.616z" fill="#fff"/></g><g><g><circle cx="36.656" cy="49.587" fill="#d4fbff" r="19.187"/><g><path d="m53.262 49.587c0 9.157-7.455 16.612-16.612 16.612v-3.869c7.029 0 12.743-5.713 12.743-12.742h3.869z" fill="#fa759e"/><path d="m53.262 49.587h-3.869c0-7.029-5.714-12.743-12.743-12.743v-3.869c9.157 0 16.612 7.455 16.612 16.612z" fill="#ffd7e5"/><path d="m36.65 32.975v3.869c-7.016 0-12.73 5.714-12.73 12.743h-3.869c0-9.157 7.442-16.612 16.599-16.612z" fill="#0089ef"/><path d="m36.65 62.33v3.869c-9.157 0-16.599-7.455-16.599-16.612h3.869c0 7.029 5.714 12.743 12.73 12.743z" fill="#6dc9f7"/></g></g><circle cx="36.656" cy="49.048" fill="#fa759e" r="2.697"/></g><g fill="#3a2c60"><path d="m104.876 61.167c-.552 0-1 .447-1 1v8.607c0 .553.448 1 1 1s1-.447 1-1v-8.607c0-.553-.448-1-1-1z"/><path d="m102.292 6.719c-7.508 0-13.616 6.108-13.616 13.616v8.284c0 5.968 3.864 11.039 9.217 12.874v4.654c0 .784.316 1.493.824 2.014v37.998c0 16.189-13.171 29.36-29.361 29.36s-29.36-13.171-29.36-29.36v-7.295c14.182-1.66 25.226-13.742 25.226-28.363 0-17.003-26.678-47.548-27.814-48.84-.19-.216-.463-.34-.751-.34h-.001c-.288 0-.562.125-.751.342-1.136 1.3-27.812 32.017-27.812 48.838 0 14.455 10.795 26.428 24.745 28.302v7.357c0 20.137 16.383 36.52 36.52 36.52s36.52-16.383 36.52-36.52v-10.493c0-.553-.448-1-1-1s-1 .447-1 1v10.492c0 19.034-15.485 34.52-34.52 34.52s-34.52-15.485-34.52-34.52v-7.158c.602.038 1.208.064 1.82.064.449 0 .895-.013 1.339-.034v7.128c0 17.292 14.068 31.36 31.36 31.36s31.361-14.068 31.361-31.36v-37.13c.022 0 .042.006.064.006h3.022c.025 0 .048-.007.072-.007v7.805c0 .553.448 1 1 1s1-.447 1-1v-8.683c.503-.52.816-1.225.816-2.004v-4.653c5.353-1.835 9.217-6.906 9.217-12.874v-8.284c0-7.508-6.109-13.616-13.617-13.616zm-92.201 43.782c0-14.554 22.169-41.453 26.567-46.645 4.404 5.171 26.563 31.93 26.563 46.645 0 14.647-11.917 26.564-26.565 26.564s-26.565-11.917-26.565-26.564zm94.6-4.355c0 .49-.398.889-.888.889h-3.022c-.49 0-.888-.398-.888-.889v-4.135c.78.14 1.58.225 2.399.225.82 0 1.619-.085 2.399-.225zm9.218-17.527c0 6.405-5.211 11.617-11.617 11.617s-11.616-5.212-11.616-11.617v-8.284c0-6.405 5.211-11.616 11.616-11.616s11.617 5.211 11.617 11.616z"/><path d="m36.656 29.4c-11.131 0-20.187 9.056-20.187 20.187 0 11.132 9.056 20.188 20.187 20.188s20.187-9.056 20.187-20.188c0-11.131-9.055-20.187-20.187-20.187zm0 38.374c-10.028 0-18.187-8.159-18.187-18.188s8.159-18.186 18.187-18.186 18.187 8.158 18.187 18.187-8.158 18.187-18.187 18.187z"/><circle cx="36.85" cy="34.929" r="1.963"/><circle cx="21.999" cy="49.393" r="1.963"/><circle cx="36.463" cy="64.244" r="1.963"/><circle cx="51.314" cy="49.78" r="1.963"/><path d="m37.656 58.069v-6.52c-.31.124-.646.196-1 .196s-.69-.073-1-.197v6.521c0 .553.448 1 1 1s1-.447 1-1z"/></g></g></g></svg>